<?xml version="1.0" encoding="iso-8859-1"?>
<!-- Generator: Adobe Illustrator 19.0.0, SVG Export Plug-In . SVG Version: 6.00 Build 0)  -->
<svg version="1.1" id="Layer_1" xmlns="http://www.w3.org/2000/svg" xmlns:xlink="http://www.w3.org/1999/xlink" x="0px" y="0px"
	 viewBox="0 0 512 512" style="enable-background:new 0 0 512 512;" xml:space="preserve">
<path style="fill:#FA9647;" d="M256,30.28c-3.882,0-7.742,0.098-11.576,0.292v450.856c3.834,0.194,7.693,0.292,11.576,0.292
	c124.662,0,225.72-101.059,225.72-225.72S380.662,30.28,256,30.28z"/>
<path style="fill:#F9B233;" d="M437.678,256c0-124.662-81.34-225.72-181.677-225.72C131.339,30.28,30.28,131.338,30.28,256
	S131.339,481.72,256,481.72C356.338,481.72,437.678,380.662,437.678,256z"/>
<circle cx="256" cy="440.43" r="8.258"/>
<circle cx="289.032" cy="407.398" r="8.258"/>
<circle cx="256" cy="71.57" r="8.258"/>
<circle cx="407.398" cy="256" r="8.258"/>
<circle cx="137.634" cy="256" r="8.258"/>
<circle cx="104.602" cy="222.968" r="8.258"/>
<path d="M503.249,273.683l-13.843-1.454c0.369-5.363,0.573-10.772,0.573-16.228c0-5.456-0.204-10.864-0.573-16.228l13.843-1.455
	c4.535-0.477,7.825-4.541,7.35-9.076c-0.478-4.535-4.527-7.826-9.076-7.35l-13.833,1.453c-1.521-10.838-3.772-21.443-6.73-31.756
	l13.208-4.292c4.337-1.409,6.712-6.068,5.302-10.405c-1.409-4.338-6.071-6.71-10.405-5.302l-13.218,4.295
	c-3.739-10.228-8.183-20.118-13.254-29.626l12.086-6.979c3.95-2.28,5.303-7.331,3.022-11.281c-2.281-3.951-7.332-5.303-11.281-3.022
	l-12.112,6.993c-5.766-9.187-12.151-17.946-19.099-26.22l10.424-9.386c3.389-3.052,3.663-8.273,0.611-11.663
	c-3.051-3.39-8.273-3.663-11.663-0.611l-10.428,9.39c-7.518-7.777-15.563-15.042-24.087-21.722l8.234-11.332
	c2.681-3.69,1.863-8.854-1.827-11.535c-3.686-2.68-8.854-1.864-11.535,1.827l-8.218,11.311c-8.94-6.044-18.324-11.475-28.081-16.258
	l5.671-12.736c1.855-4.166-0.019-9.048-4.185-10.903c-4.164-1.855-9.049,0.019-10.903,4.185l-5.662,12.716
	c-9.968-4.038-20.273-7.407-30.863-10.052l2.889-13.594c0.948-4.462-1.899-8.846-6.36-9.795c-4.464-0.947-8.847,1.899-9.795,6.361
	l-2.889,13.592c-10.537-1.849-21.317-2.981-32.285-3.363V8.258C264.258,3.697,260.562,0,256,0c-4.562,0-8.258,3.697-8.258,8.258
	v13.925c-10.968,0.382-21.746,1.514-32.285,3.363l-2.889-13.592c-0.947-4.462-5.336-7.308-9.795-6.361
	c-4.462,0.948-7.309,5.334-6.36,9.795l2.889,13.594c-10.59,2.646-20.895,6.015-30.863,10.052l-5.662-12.716
	c-1.855-4.166-6.737-6.039-10.903-4.185c-4.166,1.855-6.039,6.736-4.185,10.903l5.671,12.736
	c-9.758,4.783-19.141,10.215-28.081,16.258l-8.218-11.311c-2.68-3.69-7.844-4.508-11.535-1.827
	c-3.691,2.681-4.508,7.845-1.827,11.535l8.234,11.332c-8.525,6.68-16.569,13.945-24.087,21.722l-10.428-9.39
	c-3.387-3.05-8.609-2.779-11.663,0.611c-3.052,3.389-2.778,8.61,0.611,11.663l10.424,9.386c-6.948,8.273-13.333,17.033-19.099,26.22
	l-12.112-6.993c-3.952-2.281-9.001-0.927-11.281,3.022c-2.28,3.95-0.927,9,3.022,11.281l12.087,6.979
	c-5.07,9.508-9.514,19.398-13.254,29.626l-13.218-4.295c-4.332-1.408-8.996,0.963-10.405,5.302
	c-1.409,4.337,0.965,8.996,5.302,10.405l13.208,4.292c-2.957,10.313-5.209,20.918-6.73,31.756l-13.833-1.453
	c-4.543-0.475-8.599,2.814-9.076,7.35c-0.477,4.535,2.814,8.599,7.35,9.076l13.843,1.455c-0.369,5.364-0.573,10.773-0.573,16.229
	c0,5.456,0.204,10.864,0.573,16.228l-13.843,1.456c-4.535,0.477-7.825,4.541-7.35,9.076c0.446,4.242,4.029,7.396,8.203,7.396
	c0.288,0,0.579-0.015,0.873-0.046l13.833-1.453c1.521,10.838,3.772,21.443,6.73,31.756l-13.208,4.292
	c-4.337,1.409-6.712,6.068-5.302,10.405c1.134,3.49,4.371,5.708,7.852,5.708c0.847,0,1.707-0.131,2.553-0.406l13.218-4.295
	c3.739,10.228,8.183,20.118,13.254,29.626l-12.087,6.979c-3.95,2.28-5.303,7.331-3.022,11.28c1.53,2.649,4.305,4.13,7.159,4.13
	c1.401,0,2.822-0.357,4.121-1.108l12.112-6.993c5.766,9.187,12.151,17.946,19.099,26.22l-10.424,9.386
	c-3.389,3.052-3.663,8.273-0.611,11.663c1.63,1.811,3.879,2.733,6.138,2.733c1.969,0,3.945-0.7,5.524-2.121l10.428-9.39
	c7.518,7.777,15.563,15.042,24.087,21.722l-8.234,11.332c-2.681,3.69-1.863,8.854,1.827,11.535c1.466,1.065,3.163,1.578,4.847,1.578
	c2.552,0,5.072-1.18,6.687-3.405l8.218-11.311c8.94,6.044,18.324,11.475,28.081,16.258l-5.671,12.736
	c-1.855,4.166,0.019,9.048,4.185,10.903c1.091,0.486,2.232,0.716,3.355,0.716c3.161,0,6.179-1.827,7.548-4.901l5.662-12.716
	c9.968,4.038,20.273,7.407,30.863,10.052l-2.889,13.594c-0.948,4.462,1.899,8.846,6.36,9.795c0.579,0.123,1.157,0.182,1.725,0.182
	c3.815,0,7.244-2.66,8.069-6.543l2.889-13.592c10.537,1.849,21.317,2.981,32.285,3.363v13.924c0,4.561,3.696,8.258,8.258,8.258
	c4.562,0,8.258-3.697,8.258-8.258v-13.925c10.968-0.382,21.746-1.514,32.285-3.363l2.889,13.592
	c0.825,3.882,4.252,6.543,8.069,6.543c0.569,0,1.147-0.059,1.725-0.182c4.462-0.948,7.309-5.334,6.36-9.795l-2.889-13.594
	c10.59-2.646,20.895-6.015,30.863-10.052l5.662,12.716c1.369,3.075,4.386,4.901,7.548,4.901c1.123,0,2.264-0.23,3.355-0.716
	c4.166-1.855,6.039-6.736,4.185-10.903l-5.671-12.736c9.758-4.783,19.141-10.215,28.081-16.258l8.218,11.311
	c1.616,2.224,4.133,3.405,6.687,3.405c1.682,0,3.381-0.513,4.847-1.578c3.691-2.681,4.508-7.845,1.827-11.535l-8.234-11.332
	c8.525-6.68,16.569-13.945,24.087-21.722l10.428,9.39c1.579,1.421,3.554,2.121,5.524,2.121c2.258,0,4.509-0.922,6.138-2.733
	c3.052-3.389,2.778-8.61-0.611-11.663l-10.424-9.386c6.948-8.273,13.333-17.033,19.099-26.22l12.112,6.993
	c1.301,0.751,2.721,1.108,4.121,1.108c2.854,0,5.63-1.481,7.159-4.13c2.28-3.95,0.927-9-3.022-11.281l-12.087-6.979
	c5.07-9.508,9.514-19.398,13.254-29.626l13.218,4.295c0.848,0.275,1.708,0.406,2.553,0.406c3.48,0,6.719-2.219,7.852-5.708
	c1.409-4.337-0.965-8.996-5.302-10.405l-13.209-4.292c2.958-10.313,5.209-20.918,6.73-31.756l13.833,1.453
	c0.294,0.031,0.585,0.046,0.873,0.046c4.173,0,7.757-3.154,8.203-7.396C511.074,278.223,507.784,274.16,503.249,273.683z
	 M256,473.462c-119.909,0-217.462-97.553-217.462-217.462S136.091,38.538,256,38.538S473.462,136.091,473.462,256
	S375.909,473.462,256,473.462z"/>
<g>
</g>
<g>
</g>
<g>
</g>
<g>
</g>
<g>
</g>
<g>
</g>
<g>
</g>
<g>
</g>
<g>
</g>
<g>
</g>
<g>
</g>
<g>
</g>
<g>
</g>
<g>
</g>
<g>
</g>
</svg>
